<svg fill="#1C2033" width="20" height="20" viewBox="0 0 64 64" xmlns="http://www.w3.org/2000/svg"><path d="M32 61.2004C30.917 61.2004 29.9324 60.9004 28.9477 60.4004L9.25543 48.9004C7.38466 47.8004 6.20312 45.7004 6.20312 43.5004V20.5004C6.20312 18.3004 7.38466 16.2004 9.25543 15.1004L28.9477 3.60039C30.8185 2.50039 33.1816 2.50039 35.0524 3.60039L54.7447 15.1004C56.6154 16.2004 57.797 18.3004 57.797 20.5004V43.6004C57.797 45.8004 56.6154 47.9004 54.7447 49.0004L35.0524 60.5004C34.0677 61.0004 33.0831 61.2004 32 61.2004ZM31.1139 7.50039L11.4216 19.0004C10.9293 19.3004 10.5354 19.9004 10.5354 20.5004V43.6004C10.5354 44.2004 10.8308 44.8004 11.4216 45.1004L31.1139 56.6004C31.6062 56.9004 32.2954 56.9004 32.7877 56.6004L52.48 45.1004C52.9724 44.8004 53.3662 44.2004 53.3662 43.6004V20.5004C53.3662 19.9004 53.0708 19.3004 52.48 19.0004L32.7877 7.50039C32.2954 7.20039 31.7047 7.20039 31.1139 7.50039Z"/><path d="M31.9998 44.1004C25.4029 44.1004 20.0859 38.7004 20.0859 32.0004C20.0859 25.3004 25.4029 19.9004 31.9998 19.9004C38.5967 19.9004 43.9136 25.3004 43.9136 32.0004C43.9136 38.7004 38.5967 44.1004 31.9998 44.1004ZM31.9998 24.4004C27.8644 24.4004 24.5167 27.8004 24.5167 32.0004C24.5167 36.2004 27.8644 39.6004 31.9998 39.6004C36.1352 39.6004 39.4829 36.2004 39.4829 32.0004C39.4829 27.8004 36.1352 24.4004 31.9998 24.4004Z"/></svg>