<svg xmlns="http://www.w3.org/2000/svg" viewBox="0 0 680 420" width="680" height="420" role="img" aria-label="Abstract product illustration">
  <defs>
    <linearGradient id="a" x1="0" y1="0" x2="1" y2="1">
      <stop offset="0%" stop-color="#4F46E5"/>
      <stop offset="100%" stop-color="#10B981"/>
    </linearGradient>
    <filter id="blur" x="-20%" y="-20%" width="140%" height="140%">
      <feGaussianBlur stdDeviation="20"/>
    </filter>
  </defs>
  <rect width="680" height="420" rx="24" fill="#fff"/>
  <g opacity="0.25" filter="url(#blur)">
    <circle cx="120" cy="80" r="90" fill="url(#a)"/>
    <circle cx="600" cy="60" r="70" fill="#10B981"/>
    <circle cx="520" cy="300" r="120" fill="#4F46E5"/>
  </g>
  <g>
    <rect x="60" y="80" width="560" height="260" rx="12" fill="#f6f8ff" stroke="#e5e7eb"/>
    <rect x="90" y="120" width="160" height="16" rx="8" fill="#c7d2fe"/>
    <rect x="90" y="150" width="260" height="10" rx="5" fill="#d1d5db"/>
    <rect x="90" y="170" width="220" height="10" rx="5" fill="#d1d5db"/>
    <rect x="90" y="190" width="280" height="10" rx="5" fill="#d1d5db"/>
    <rect x="90" y="230" width="500" height="120" rx="10" fill="#fff" stroke="#e5e7eb"/>
    <rect x="110" y="250" width="160" height="16" rx="8" fill="#a5b4fc"/>
    <rect x="110" y="280" width="440" height="8" rx="4" fill="#e5e7eb"/>
    <rect x="110" y="300" width="360" height="8" rx="4" fill="#e5e7eb"/>
  </g>
</svg>
